<svg width="512" height="512" viewBox="0 0 512 512" fill="none" xmlns="http://www.w3.org/2000/svg">
<path fill-rule="evenodd" clip-rule="evenodd" d="M256 490.667C229.897 490.667 215.454 487.866 192 480L147.081 502.46C118.712 516.644 85.3334 496.015 85.3334 464.297V416C39.3931 373.163 21.3334 323.77 21.3334 256C21.3334 126.397 126.397 21.3334 256 21.3334C385.602 21.3334 490.667 126.397 490.667 256C490.667 385.602 385.602 490.667 256 490.667ZM128 397.446L114.431 384.794C78.7386 351.514 64 314.306 64 256C64 149.961 149.961 64 256 64C362.04 64 448 149.961 448 256C448 362.04 362.04 448 256 448C234.972 448 225.109 446.101 205.567 439.548L188.767 433.914L128 464.297V397.446Z" fill="white"/>
<path fill-rule="evenodd" clip-rule="evenodd" d="M373.333 362.667C373.333 368.558 368.558 373.333 362.667 373.333H149.333C143.442 373.333 138.667 368.558 138.667 362.667C138.667 356.775 143.442 352 149.333 352H362.667C368.558 352 373.333 356.775 373.333 362.667Z" fill="white"/>
<path fill-rule="evenodd" clip-rule="evenodd" d="M263.919 316.673C255.9 323.622 243.994 323.622 235.975 316.673L184.57 272.122C169.646 259.187 178.793 234.667 198.542 234.667H217.947V149.333C217.947 137.551 227.498 128 239.28 128H260.614C272.396 128 281.947 137.551 281.947 149.333V234.667H301.353C321.101 234.667 330.248 259.187 315.324 272.122L263.919 316.673ZM242.962 294.497C246.97 297.971 252.924 297.971 256.933 294.497L301.353 256H276.614C267.778 256 260.614 248.836 260.614 240V149.333H239.28V240C239.28 248.836 232.117 256 223.281 256H198.542L242.962 294.497Z" fill="white"/>
</svg>
